<svg width="32" height="32" viewBox="0 0 32 32" fill="none"><rect width="32" height="32" rx="8" fill="#0A0A0A"/><path d="M16 5.25c-5.865 0-10.625 4.758-10.625 10.625 0 4.697 3.044 8.683 7.27 10.089.531.098.726-.227.726-.506v-1.987c-2.957.642-3.58-1.365-3.58-1.365-.483-1.227-1.18-1.553-1.18-1.553-.966-.662.073-.649.073-.649 1.06.075 1.617 1.089 1.617 1.089.945 1.618 2.482 1.151 3.087.88.095-.684.371-1.151.678-1.416-2.363-.27-4.846-1.184-4.846-5.272 0-1.165.416-2.116 1.096-2.863-.11-.27-.475-1.362.104-2.836 0 0 .89-.285 2.915 1.093a10.13 10.13 0 0 1 2.65-.355c.899.004 1.803.12 2.649.356 2.023-1.378 2.911-1.093 2.911-1.093.581 1.474.216 2.565.106 2.835.682.747 1.094 1.698 1.094 2.863 0 4.099-2.486 5-4.856 5.265.38.326.72.97.72 1.957v2.612c0 .283.191.608.733.505 4.229-1.406 7.271-5.392 7.271-10.089 0-5.867-4.76-10.625-10.625-10.625z" fill="#7C3AED"/></svg>